<?xml version="1.0" encoding="utf-8"?>
<svg version="1.1" xmlns="http://www.w3.org/2000/svg" xmlns:xlink="http://www.w3.org/1999/xlink" x="0px" y="0px"
	 viewBox="0 0 201.6 84.7" style="enable-background:new 0 0 201.6 84.7;" xml:space="preserve">
<style type="text/css">
	.st0{fill:#007dba;}
	.st1{fill:#00263a;}
</style>
<g>
	<path class="st0" d="M44.5,0h15.6l20.3,29.9V0h15.7v54H80.4L60.2,24.4V54H44.5V0z"/>
	<path class="st0" d="M107.5,0h24.8c4.9,0,8.8,0.7,11.9,2c2.9,1.3,5.5,3.2,7.5,5.7c2,2.6,3.5,5.5,4.3,8.7c0.9,3.4,1.3,6.9,1.3,10.5
		c0,5.8-0.7,10.3-2,13.4c-1.2,3-3.1,5.8-5.5,8c-2.1,2-4.7,3.5-7.5,4.3c-3.2,0.9-6.6,1.4-9.9,1.5h-24.8L107.5,0z M124.2,12.2v29.5
		h4.1c3.5,0,6-0.4,7.4-1.2c1.6-0.9,2.8-2.3,3.5-4c0.8-1.9,1.3-5.1,1.3-9.4c0-5.7-0.9-9.6-2.8-11.8s-5-3.2-9.3-3.2L124.2,12.2z"/>
	<path class="st0" d="M157.8,0c-2,0-3.5,1.6-3.5,3.5s1.6,3.5,3.5,3.5s3.5-1.6,3.5-3.5c0,0,0,0,0,0l0,0C161.3,1.6,159.8,0,157.8,0z
		 M157.8,6.6c-1.7,0-3-1.3-3-3s1.3-3,3-3s3,1.3,3,3S159.5,6.6,157.8,6.6L157.8,6.6z"/>
	<path class="st0" d="M156.3,4.7l-0.6-1.8h0c0,0.4,0,0.6,0,0.7v1.1h-0.4V2.4h0.7l0.5,1.8h0l0.6-1.8h0.7v2.3h-0.5V3.6
		c0-0.1,0-0.1,0-0.2c0-0.1,0-0.2,0-0.5h0l-0.6,1.8H156.3z"/>
	<path class="st0" d="M158.9,3.8v0.9h-0.5V2.4h0.7c0.3,0,0.5,0.1,0.7,0.2c0.2,0.1,0.2,0.3,0.2,0.5c0,0.1,0,0.3-0.1,0.4
		c-0.1,0.1-0.2,0.2-0.3,0.2c0.3,0.5,0.6,0.9,0.7,1h-0.5l-0.6-0.9H158.9z M158.9,3.4h0.2c0.2,0,0.3,0,0.3-0.1
		c0.1-0.1,0.1-0.1,0.1-0.2c0-0.1,0-0.2-0.1-0.2c-0.1,0-0.2-0.1-0.4-0.1h-0.1V3.4z"/>
</g>
<g>
	<path class="st1" d="M0,65.5V65c0.8,0,1.7,0,2.5-0.1h0.7c0.3,0.3,0.6,0.6,0.9,0.9L4.3,66l2.3,2.5l0.3,0.4c0.5,0.5,0.9,1,1.3,1.4
		c0.4,0.4,1.1,1.2,2.2,2.4l2.6,2.9l1,1.1v-0.2c0-1-0.1-1.5-0.1-1.6v-2.1c0-0.3,0-1.2-0.1-2.8c0-0.2,0-0.6-0.1-1.2
		c-0.1-0.5-0.1-1-0.1-1.6c0-0.5,0-0.9-0.1-1.4c-0.3-0.2-0.6-0.3-0.9-0.3L12,65.5c-0.2,0-0.4,0-0.6-0.1c-0.1,0-0.1-0.1-0.2-0.2
		c0-0.1,0-0.2,0.1-0.3c0.2-0.1,0.4-0.1,0.6-0.1c0.3,0,0.5,0,0.8,0.1c0.3,0,0.5,0.1,0.8,0.1c0.3,0,0.9,0,1.6-0.1h1v0.3
		c-0.2,0.1-0.3,0.1-0.5,0.1c-0.2,0-0.4,0-0.6,0.1c-0.2,0-0.3,0.1-0.5,0.2c-0.2,0.2-0.3,0.4-0.3,0.6l0.1,3.4l0.1,1.6v0.5l0.1,2.2
		c0,1.5,0.1,2.8,0.1,3.9v1.6h-0.5c-0.3-0.3-1.1-1.2-2.6-2.8c-0.3-0.4-0.6-0.6-0.7-0.8l-1-1.1L9.1,74l-0.2-0.2
		c-0.8-0.9-1.8-2-3.1-3.4c-0.3-0.4-0.8-0.9-1.5-1.7c-0.4-0.5-0.7-0.8-0.8-0.9c-0.1-0.1-0.3-0.2-0.4-0.3v0.4c0,1.4,0,3.4,0.1,5.9
		l0.1,3.6c0,0.3,0,0.6,0,0.9l0.4,0.1c0.7,0.1,1.3,0.2,2,0.3l0.1,0.1v0.4c-0.1,0-0.2,0-0.3,0.1H5.2C4.3,79,3.4,79,2.5,79
		c-0.7,0-1.4,0-1.9,0.1H0.2v-0.3l0.3-0.1L1,78.5c0.3,0,0.7-0.1,1-0.2c0.1,0,0.2-0.1,0.3-0.2c0.1-0.7,0.1-1.5,0.1-2.2v-7.1
		c0-0.8,0-1.6-0.1-2.4C2.3,66.2,2.1,66.1,2,66c-0.3-0.2-0.7-0.3-1.1-0.4C0.6,65.6,0.3,65.6,0,65.5z"/>
	<path class="st1" d="M17.3,70.3h2.9v4.2c0,0.8,0,1.6,0.1,2.4c0.1,0.3,0.3,0.6,0.6,0.8c0.3,0.2,0.7,0.3,1.1,0.3
		c0.5,0,1.1-0.1,1.5-0.3c0.5-0.2,0.9-0.5,1.2-0.8c0-0.3,0-0.6,0-0.9v-2.8c0.1-0.7,0-1.3-0.2-2c-0.1-0.2-0.6-0.3-1.3-0.3l-0.6-0.1
		c0-0.1-0.1-0.1-0.1-0.2v-0.1c0.2,0,0.4,0,0.6,0h3v0.8c-0.1,1.1-0.1,2.5-0.1,4.1v2.4c0,0.1,0.1,0.2,0.2,0.2c0.2,0,0.4,0.1,0.5,0.1
		H27l0.8,0.1v0.3c-0.8,0.2-1.6,0.4-2.4,0.6C25.2,79,25,79,24.8,79.1c0-0.2,0-0.3,0-0.5v-1.2l-0.3,0.2c-0.6,0.4-1.2,0.8-1.8,1.1
		c-0.4,0.2-0.8,0.3-1.3,0.3c-0.7,0-1.4-0.3-1.9-0.8c-0.6-0.9-0.8-1.9-0.7-2.9v-4.1c0-0.1-0.1-0.3-0.2-0.3c-0.3-0.1-0.6-0.2-0.9-0.2
		c-0.1,0-0.3,0-0.4-0.1L17.3,70.3z M21.3,68.1l1.4-1.9c0.3-0.5,0.7-0.9,1.2-1.2c0.2-0.1,0.3-0.2,0.5-0.2c0.2,0,0.3,0,0.5,0.2
		c0.1,0.1,0.2,0.2,0.2,0.4c0,0.2-0.1,0.3-0.1,0.4c-0.2,0.2-0.5,0.5-0.7,0.6l-2.5,1.8H21.3z"/>
	<path class="st1" d="M36.6,76.9v0.7c-0.5,0.5-1,1-1.6,1.3c-0.6,0.3-1.3,0.4-2,0.4c-0.8,0-1.6-0.2-2.2-0.6c-0.7-0.4-1.2-1.1-1.5-1.8
		c-0.3-0.7-0.5-1.5-0.5-2.3c0-0.8,0.2-1.6,0.6-2.3c0.4-0.7,1-1.3,1.7-1.6c0.8-0.4,1.7-0.5,2.7-0.5c0.8-0.1,1.6,0.1,2.3,0.5
		c0.3,0.2,0.4,0.5,0.5,0.8c0,0.2-0.1,0.4-0.2,0.6c-0.2,0.2-0.4,0.2-0.6,0.2c-0.5-0.1-0.9-0.3-1.2-0.7c-0.2-0.2-0.5-0.4-0.7-0.6
		c-0.2-0.1-0.5-0.2-0.7-0.2c-0.6,0-1.2,0.3-1.6,0.8c-0.6,0.8-0.9,1.8-0.9,2.8c-0.1,1,0.3,2,0.9,2.8c0.5,0.6,1.3,1,2.1,1
		c0.5,0,1-0.1,1.5-0.3C35.7,77.6,36.2,77.3,36.6,76.9z"/>
	<path class="st1" d="M37.8,65.3v-0.2l0.7-0.2l1.6-0.5h0.5V65c0,6,0,9.6,0,10.7v1.1c0,0.5,0,0.9,0.1,1.4c0.1,0.1,0.3,0.2,0.8,0.3
		c0.3,0,0.5,0.1,0.8,0.2c0.1,0,0.1,0.1,0.1,0.2c0,0.1,0,0.1,0,0.2c-0.1,0-0.1,0-0.2,0H41l-1.4-0.1l-1.8,0.1c-0.1,0-0.2,0-0.3-0.1
		c0,0-0.1-0.1-0.1-0.2c0-0.1,0-0.1,0.1-0.2c0.3-0.1,0.5-0.1,0.8-0.2c0.3,0,0.6-0.1,0.8-0.2c0.1-0.1,0.1-0.2,0.1-0.4V66.6
		c0-0.2,0-0.4-0.1-0.6c-0.1-0.2-0.3-0.3-0.5-0.3C38.2,65.5,37.9,65.4,37.8,65.3z"/>
	<path class="st1" d="M51,73.1h-6.2c-0.1,0.1-0.1,0.3-0.1,0.4v0.8c0,0.6,0.1,1.2,0.4,1.7c0.2,0.6,0.7,1.1,1.2,1.5
		c0.6,0.4,1.3,0.6,2,0.5c0.3,0,0.7-0.1,1-0.2c0.4-0.1,0.7-0.3,1-0.6l0.8-0.6l0.1,0.4c0,0.1,0,0.1,0,0.2c-0.4,0.4-0.8,0.8-1.3,1.1
		c-0.5,0.3-1,0.5-1.5,0.7c-0.4,0.1-0.8,0.1-1.2,0.1c-0.5,0-1-0.1-1.5-0.3c-0.7-0.3-1.3-0.9-1.8-1.5c-0.4-0.8-0.7-1.7-0.6-2.6
		c0-0.4,0.1-0.8,0.2-1.2c0.1-0.6,0.4-1.1,0.7-1.6c0.2-0.4,0.5-0.7,0.8-0.9c0.3-0.3,0.7-0.5,1.2-0.7c0.5-0.2,1.1-0.3,1.7-0.3
		c1.2-0.1,2.4,0.6,3,1.6C50.9,72,51,72.5,51,73V73.1z M44.9,72.7h0.5c0.4,0,1.5-0.1,3.3-0.2c0.2,0,0.4,0,0.5-0.1
		c0.1-0.1,0.2-0.2,0.2-0.4c0-0.3-0.1-0.5-0.2-0.8c-0.1-0.3-0.4-0.5-0.7-0.7c-0.3-0.2-0.7-0.2-1-0.2c-0.8,0-1.5,0.4-2,1
		C45.2,71.8,45,72.2,44.9,72.7L44.9,72.7z"/>
	<path class="st1" d="M52.5,74.5c0-1.7,1-3.3,2.6-4.1c0.8-0.3,1.6-0.5,2.4-0.5c2.6,0,4.8,2.1,4.8,4.7c0,0,0,0,0,0c0,0,0,0.1,0,0.1
		c0,1.2-0.5,2.3-1.4,3.1c-1.7,1.5-4.2,1.8-6.2,0.7c-0.6-0.4-1.2-0.9-1.5-1.6C52.7,76.1,52.4,75.3,52.5,74.5z M57.3,78.7
		c0.6,0,1.1-0.2,1.6-0.4c0.6-0.3,1-0.8,1.2-1.4c0.3-0.7,0.5-1.5,0.5-2.3c0-0.7-0.1-1.4-0.4-2c-0.2-0.7-0.6-1.3-1.1-1.7
		c-0.5-0.4-1.1-0.6-1.7-0.6c-0.5,0-1,0.1-1.5,0.3c-0.6,0.3-1,0.8-1.3,1.3c-0.4,0.9-0.6,1.8-0.5,2.7c-0.1,1.1,0.2,2.1,0.9,3
		C55.6,78.4,56.4,78.8,57.3,78.7z"/>
	<path class="st1" d="M76.6,70.9v-4c0-0.4,0-0.9-0.2-1.3c-0.4-0.3-0.8-0.5-1.3-0.6L74.9,65v-0.1c0-0.1,0-0.2,0-0.2
		c0.9-0.1,1.7-0.2,2.6-0.5H78V70l0.1,4.7v2.5c0,0.5,0,0.8,0.1,0.9c0.3,0.2,0.6,0.3,1,0.2h0.4v0.2c0,0.1,0,0.1,0,0.2l-0.7,0.1
		l-1.6,0.3c-0.2,0-0.4,0.1-0.6,0.1v-1c-0.2,0.1-0.4,0.1-0.6,0.2c-1,0.4-2,0.7-3.1,0.7c-0.6,0-1.2-0.2-1.8-0.6
		c-0.6-0.4-1.1-1-1.4-1.6c-0.3-0.6-0.5-1.3-0.5-2c0-0.6,0.1-1.2,0.3-1.8c0.2-0.5,0.5-1,0.8-1.4c0.3-0.3,0.6-0.5,0.9-0.7
		c0.3-0.2,0.6-0.4,1-0.5c0.4-0.1,0.9-0.2,1.3-0.3c0.8,0,1.7,0.1,2.4,0.4L76.6,70.9z M76.6,77.7v-3c0-0.8,0-1.6-0.2-2.4
		c-0.2-0.4-0.5-0.8-0.9-1c-0.5-0.3-1-0.4-1.5-0.4c-0.8,0-1.6,0.4-2.1,1c-0.6,0.8-0.9,1.8-0.9,2.8c0,1,0.3,1.9,0.9,2.7
		c0.6,0.7,1.5,1,2.3,1c0.5,0,1-0.1,1.5-0.2C76.1,78,76.4,77.9,76.6,77.7L76.6,77.7z"/>
	<path class="st1" d="M88.5,73.1h-6.2c-0.1,0.1-0.1,0.3-0.1,0.4v0.8c0,0.6,0.2,1.2,0.4,1.7c0.2,0.6,0.7,1.1,1.2,1.5
		c0.6,0.4,1.3,0.5,1.9,0.5c0.3,0,0.7-0.1,1-0.2c0.4-0.1,0.7-0.3,1-0.6l0.8-0.6l0.1,0.4c0,0.1,0,0.1,0,0.2c-0.4,0.4-0.8,0.8-1.3,1.1
		c-0.5,0.3-1,0.5-1.5,0.7c-0.4,0.1-0.8,0.1-1.2,0.1c-0.5,0-1-0.1-1.5-0.3c-0.7-0.3-1.3-0.9-1.8-1.5c-0.4-0.8-0.7-1.7-0.6-2.6
		c0-0.4,0.1-0.8,0.2-1.2c0.1-0.6,0.4-1.1,0.7-1.6c0.2-0.4,0.5-0.7,0.8-0.9c0.3-0.3,0.7-0.5,1.2-0.7c0.5-0.2,1.1-0.3,1.7-0.3
		c1.2-0.1,2.4,0.6,3,1.6c0.3,0.4,0.4,1,0.4,1.5V73.1z M82.4,72.7h0.5c0.4,0,1.5-0.1,3.3-0.2c0.2,0,0.4,0,0.5-0.1
		c0.1-0.1,0.2-0.2,0.2-0.4c0-0.3-0.1-0.5-0.2-0.8c-0.1-0.3-0.4-0.5-0.7-0.7c-0.3-0.2-0.7-0.3-1.1-0.2c-0.8,0-1.5,0.4-2,1
		C82.7,71.8,82.4,72.2,82.4,72.7L82.4,72.7z"/>
	<path class="st1" d="M95,78.7c0.3-0.1,0.6-0.2,0.9-0.2c0.4,0,0.8-0.1,1.2-0.4c0.3-1,0.4-2,0.3-3.1v-8.4c0-0.3,0-0.6-0.2-0.8
		c-0.4-0.3-0.9-0.4-1.3-0.5c-0.2,0-0.4-0.1-0.6-0.2c-0.1-0.1-0.1-0.2-0.1-0.3c0.1,0,0.2,0,0.3-0.1h1.2c0.3,0,0.6,0,0.9,0.1
		c0.7,0,1.4,0.1,2.1,0.1h0.9c1-0.1,1.7-0.1,2.2-0.1c0.8,0,1.7,0.1,2.5,0.3c0.9,0.2,1.7,0.5,2.4,1c0.6,0.4,1.1,0.9,1.6,1.4
		c0.5,0.6,0.9,1.3,1.2,2.1c0.3,0.8,0.4,1.6,0.4,2.4c0,0.9-0.2,1.7-0.5,2.5c-0.3,0.8-0.7,1.5-1.3,2.2c-0.5,0.6-1,1-1.7,1.4
		c-0.8,0.4-1.7,0.7-2.6,0.8c-0.9,0.1-1.7,0.2-2.6,0.1c-0.8,0-1.5,0-2-0.1c-0.2,0-0.4,0-0.7,0h-0.1L95,79v-0.1c0,0,0-0.1,0-0.1V78.7z
		 M100.6,78.2c0.5,0.2,1.1,0.3,1.7,0.3c0.7,0,1.5-0.1,2.2-0.3c0.7-0.2,1.3-0.6,1.9-1c0.5-0.4,1-0.9,1.3-1.4c0.3-0.4,0.6-0.9,0.7-1.4
		c0.2-0.8,0.3-1.6,0.3-2.4c0-1-0.2-2-0.6-2.9c-0.3-0.7-0.8-1.4-1.5-1.9c-0.7-0.6-1.6-1.1-2.5-1.4c-1-0.3-2-0.4-3.1-0.4
		c-0.6,0-1.1,0.1-1.7,0.3l-0.1,0.2c0,0.2-0.1,0.3-0.1,0.5V71c-0.1,2,0,4.1,0.2,6.1C99.6,77.6,100,78,100.6,78.2L100.6,78.2z"/>
	<path class="st1" d="M112.6,71.1v-0.3l0.8-0.2c0.3-0.1,0.6-0.3,0.8-0.5c0.3-0.2,0.5-0.5,0.7-0.8h0.3c0,0.3,0,0.6,0,0.8v7.5
		c0,0.2,0,0.4,0.1,0.6c0.3,0.2,0.5,0.3,0.8,0.4c0.2,0.1,0.4,0.1,0.7,0.2c0,0.1,0,0.2-0.1,0.3l-1.1-0.1c-0.6-0.1-1-0.1-1.2-0.1
		l-1.8,0.1c-0.2,0-0.4,0-0.6,0.1H112c0,0,0-0.1-0.1-0.1c0-0.1,0.1-0.2,0.2-0.2l1.1-0.3c0.2,0,0.3-0.1,0.5-0.2
		c0.1-0.2,0.2-0.5,0.2-0.7c0-0.6,0-2.1,0-4.6c0-0.3,0-0.6-0.1-0.9c-0.1-0.1-0.2-0.2-0.3-0.3C113.3,71.3,113,71.2,112.6,71.1z
		 M113.5,65.5c0-0.2,0.1-0.5,0.3-0.6c0.4-0.4,1-0.4,1.4,0c0.2,0.2,0.3,0.4,0.3,0.6c0,0.2-0.1,0.5-0.3,0.6c-0.2,0.2-0.4,0.3-0.7,0.3
		c-0.3,0-0.5-0.1-0.7-0.3C113.6,65.9,113.5,65.7,113.5,65.5z"/>
	<path class="st1" d="M126,77.4c0,0.1,0.1,0.1,0.1,0.2c0,0.2-0.1,0.4-0.3,0.6c-0.2,0.3-0.4,0.6-0.8,0.8c-0.2,0.1-0.5,0.2-0.7,0.2
		c-0.4,0-0.9-0.1-1.2-0.5c-0.2-0.3-0.3-0.6-0.3-1l-1.2,0.8c-0.3,0.2-0.7,0.4-1,0.5c-0.4,0.1-0.9,0.1-1.3,0.1c-0.3,0-0.6-0.1-0.9-0.3
		c-0.2-0.2-0.3-0.5-0.3-0.9c0.1-0.7,0.4-1.3,0.9-1.8c0.7-0.8,1.6-1.3,2.5-1.7c0.7-0.3,1.2-0.5,1.4-0.6V73c0.1-0.7-0.1-1.3-0.4-1.9
		c-0.3-0.3-0.7-0.5-1.1-0.5c-0.5,0-1,0.2-1.4,0.6c-0.3,0.4-0.6,0.9-0.6,1.4c-0.1,0.2-0.1,0.4-0.3,0.6c-0.2,0.2-0.5,0.3-0.8,0.3
		c-0.2,0-0.3,0-0.4-0.1c-0.1,0-0.1-0.1-0.1-0.2c0.1-0.5,0.3-0.9,0.6-1.3c0.4-0.6,0.9-1.1,1.5-1.5c0.5-0.3,1-0.5,1.6-0.5
		c0.5,0,0.9,0,1.4,0.2c0.6,0.3,1.1,0.8,1.2,1.5c0,0.6,0,1.1,0,1.7v3.9c0,0.2,0.1,0.4,0.2,0.6c0.1,0.1,0.3,0.2,0.5,0.2
		c0.3,0,0.6-0.2,0.7-0.4l0.1-0.2C125.8,77.4,125.9,77.4,126,77.4z M122.8,77.1c0.1-0.9,0.1-1.6,0.1-2v-0.8c-0.5,0.2-1.1,0.5-1.6,0.8
		c-0.5,0.3-1,0.7-1.3,1.2c-0.2,0.3-0.3,0.6-0.3,0.9c0,0.6,0.4,1,1,1c0.3,0,0.6-0.1,0.8-0.2C121.9,77.8,122.4,77.5,122.8,77.1
		L122.8,77.1z"/>
	<path class="st1" d="M129.1,79.6l-0.8-0.4c-0.4-0.2-0.7-0.5-1-0.8c-0.1-0.2-0.2-0.4-0.2-0.6c0-0.2,0-0.3,0.2-0.5
		c0.3-0.2,0.6-0.4,0.9-0.5c0.4-0.1,0.8-0.3,1.2-0.4l-0.4-0.3c-1-0.6-1.6-1.6-1.6-2.8c0-0.9,0.3-1.8,1-2.5c0.7-0.7,1.7-1,2.6-1
		c0.5,0,0.9,0.1,1.3,0.2c0.4,0.1,0.7,0.3,1,0.6l0.5,0.3c0.1,0,0.3,0.1,0.4,0.1c0.1,0,0.4,0,0.9-0.1l0.9-0.1c0.1,0,0.3,0,0.4,0.1
		c0.1,0.2,0.1,0.5,0.1,0.7c0,0.1,0,0.2-0.1,0.3c-0.1,0.1-0.2,0.1-0.3,0.1c-0.3,0-0.7-0.1-1-0.2c-0.3-0.1-0.6-0.2-0.9-0.2H134
		c0.3,0.5,0.4,1.1,0.5,1.7c0,0.6-0.2,1.1-0.5,1.6c-0.3,0.5-0.8,1-1.4,1.3c-0.5,0.3-1.1,0.4-1.8,0.4h-0.4c-0.7,0-1.3,0.2-1.9,0.5
		c-0.3,0.2-0.4,0.3-0.4,0.5s0.1,0.3,0.4,0.4c1.3,0.5,2.6,0.7,3.9,0.6c0.7,0,1.4,0.1,2,0.4c0.4,0.2,0.8,0.5,1.1,0.9
		c0.2,0.4,0.3,0.8,0.4,1.3c0,0.6-0.2,1.2-0.6,1.6c-0.5,0.6-1.1,1-1.8,1.2c-0.9,0.3-1.9,0.5-2.8,0.5c-0.9,0-1.8-0.1-2.7-0.4
		c-0.5-0.2-1-0.5-1.3-0.9c-0.2-0.3-0.4-0.6-0.4-1c0-0.4,0.2-0.8,0.4-1.1c0.5-0.6,1.1-1,1.8-1.3L129.1,79.6z M128.3,83.5
		c0.7,0.5,1.6,0.8,2.5,0.8c0.7,0,1.5-0.1,2.2-0.3c0.6-0.2,1.2-0.5,1.6-1c0.3-0.3,0.5-0.8,0.5-1.2c0-0.2-0.1-0.5-0.2-0.7
		c-0.1-0.2-0.3-0.4-0.5-0.6c-0.2-0.2-0.5-0.3-0.8-0.3c-0.3-0.1-0.7-0.1-1-0.1c-1.2-0.1-2-0.1-2.3-0.1c-0.8,0-1.5,0.3-2.1,0.8
		c-0.4,0.3-0.7,0.9-0.7,1.4C127.6,82.6,127.9,83.1,128.3,83.5z M128.7,73.4c0,0.6,0.1,1.1,0.3,1.6c0.2,0.4,0.4,0.8,0.8,1
		c0.3,0.2,0.6,0.3,1,0.3c0.6,0,1.2-0.3,1.6-0.7c0.5-0.6,0.7-1.4,0.6-2.2c0.1-0.8-0.2-1.6-0.7-2.3c-0.4-0.5-1-0.8-1.6-0.8
		c-0.6,0-1.2,0.2-1.6,0.7C128.8,71.8,128.6,72.6,128.7,73.4z"/>
	<path class="st1" d="M136.6,78.5c0.2-0.1,0.4-0.1,0.6-0.1c0.3,0,0.6-0.1,0.8-0.2c0.1-0.2,0.2-0.4,0.1-0.6v-4.3c0-0.3,0-0.6-0.2-0.9
		c-0.3-0.2-0.6-0.4-1-0.4v-0.4c0.4-0.1,0.9-0.3,1.2-0.6c0.4-0.4,0.8-0.8,1-1.3h0.4v1.7l0.3-0.2c0.4-0.3,0.9-0.6,1.3-0.8
		c0.4-0.2,0.8-0.3,1.2-0.4c0.2-0.1,0.5-0.1,0.8-0.1c0.6,0,1.1,0.2,1.5,0.5c0.4,0.3,0.7,0.7,0.8,1.1c0.2,0.9,0.2,1.7,0.2,2.6v3
		c0,0.3,0,0.7,0.1,1c0.1,0.1,0.2,0.2,0.3,0.3c0.4,0,0.8,0.1,1.2,0.3v0.1c0,0.1,0,0.2-0.1,0.3h-4.5l-0.1-0.2c0-0.1,0-0.1,0.1-0.2
		c0.3-0.1,0.5-0.2,0.8-0.2c0.1,0,0.3,0,0.4-0.1c0.1,0,0.2-0.1,0.3-0.2c0.1-0.1,0.1-0.3,0.1-0.4v-4.3c0.1-0.7-0.1-1.4-0.6-1.9
		c-0.4-0.4-1-0.6-1.5-0.5c-0.5,0-1,0.1-1.4,0.3c-0.5,0.3-1,0.6-1.4,1v3.3c0,1.3,0,2,0.1,2.3c0,0.1,0,0.2,0.1,0.2
		c0.1,0.1,0.2,0.1,0.4,0.1l0.6,0.2l0.4,0.1c0.1,0,0.2,0.1,0.3,0.2V79h-4.8v-0.1C136.6,78.7,136.6,78.6,136.6,78.5z"/>
	<path class="st1" d="M148.4,74.5c0-1.7,1-3.3,2.6-4.1c0.8-0.3,1.6-0.5,2.4-0.5c2.6,0,4.8,2.1,4.8,4.7c0,0,0,0,0,0c0,0,0,0.1,0,0.1
		c0,1.2-0.5,2.3-1.4,3.1c-1.7,1.5-4.2,1.8-6.2,0.7c-0.6-0.4-1.2-0.9-1.6-1.6C148.6,76.2,148.4,75.3,148.4,74.5z M153.2,78.7
		c0.6,0,1.1-0.2,1.6-0.4c0.6-0.3,1-0.8,1.2-1.4c0.3-0.7,0.5-1.5,0.5-2.3c0-0.7-0.1-1.4-0.4-2c-0.2-0.7-0.6-1.3-1.1-1.7
		c-0.5-0.4-1.1-0.6-1.7-0.6c-0.5,0-1,0.1-1.5,0.3c-0.6,0.3-1,0.7-1.3,1.3c-0.4,0.9-0.6,1.8-0.5,2.7c-0.1,1.1,0.2,2.1,0.9,3
		C151.5,78.4,152.4,78.7,153.2,78.7L153.2,78.7z M152.2,68.1l1.4-1.9c0.3-0.5,0.7-0.9,1.2-1.2c0.2-0.1,0.3-0.2,0.5-0.2
		c0.2,0,0.3,0,0.5,0.2c0.1,0.1,0.2,0.2,0.2,0.4c0,0.2-0.1,0.3-0.1,0.4c-0.2,0.2-0.5,0.5-0.7,0.6l-2.6,1.8L152.2,68.1L152.2,68.1z"/>
	<path class="st1" d="M160.6,76.1c0.2,0.5,0.4,0.9,0.6,1.3c0.3,0.4,0.6,0.7,1,1c0.4,0.2,0.8,0.3,1.3,0.3c0.5,0,0.9-0.2,1.2-0.5
		c0.3-0.2,0.4-0.6,0.4-0.9c0-0.5-0.2-0.9-0.5-1.3c-0.6-0.5-1.2-0.9-1.9-1.1c-0.7-0.2-1.4-0.6-1.9-1.2c-0.3-0.4-0.5-0.9-0.5-1.4
		c0-0.5,0.1-0.9,0.4-1.3c0.3-0.4,0.7-0.7,1.1-0.9c0.4-0.2,0.9-0.3,1.3-0.3c0.5,0,0.9,0,1.4,0.1c0.4,0.1,0.7,0.2,1.1,0.4
		c0.1,0.5,0.1,1.1,0.1,1.6v0.3h-0.4c-0.2-0.6-0.5-1.1-1-1.4c-0.4-0.3-0.8-0.5-1.3-0.5c-0.4,0-0.8,0.1-1.1,0.4
		c-0.3,0.3-0.4,0.6-0.4,1c0,0.3,0.1,0.6,0.3,0.9c0.4,0.4,1,0.7,1.5,0.9c0.6,0.2,1.2,0.5,1.8,0.9c0.4,0.3,0.6,0.6,0.8,1
		c0.2,0.4,0.3,0.8,0.3,1.2c0,0.5-0.2,1-0.5,1.4c-0.3,0.4-0.8,0.7-1.3,0.9c-0.4,0.2-0.9,0.3-1.3,0.3c-0.9,0-1.8-0.2-2.6-0.5
		c-0.1-0.1-0.1-0.2-0.1-0.3V78c-0.1-1-0.2-1.6-0.2-1.8c0-0.1,0-0.1,0.1-0.2C160.4,76.1,160.5,76.1,160.6,76.1z"/>
	<path class="st1" d="M170.3,68.1h0.3v2.3h3c0,0.1,0,0.3,0,0.3c0,0.2,0,0.3-0.1,0.4h-0.2l-1.7,0.1h-1c-0.1,0.2-0.1,0.4-0.1,0.6v4.5
		c-0.1,0.5,0,1,0.3,1.5c0.2,0.3,0.5,0.4,0.9,0.4c0.4,0,0.7-0.1,1.1-0.2c0.2-0.1,0.5-0.2,0.6-0.4h0.1c0.1,0,0.1,0,0.2,0.1
		c0,0,0.1,0.1,0.1,0.2v0.1c-0.3,0.3-0.7,0.6-1.1,0.8c-0.5,0.2-1.1,0.3-1.6,0.2c-0.4,0-0.8-0.1-1.2-0.3c-0.3-0.2-0.5-0.5-0.6-0.8
		c-0.1-0.7-0.2-1.3-0.1-2v-4.6H168c-0.1,0-0.1,0-0.2-0.1c0,0-0.1-0.1-0.1-0.1c0-0.1,0-0.2,0.1-0.2c0.2-0.1,0.3-0.2,0.5-0.3
		c0.2-0.1,0.5-0.3,0.7-0.4c0.2-0.2,0.5-0.5,0.6-0.7c0.1-0.3,0.3-0.5,0.4-0.8L170.3,68.1z"/>
	<path class="st1" d="M174.3,71.1v-0.3l0.8-0.2c0.3-0.1,0.6-0.3,0.8-0.5c0.3-0.2,0.5-0.5,0.7-0.8h0.4v8.3c0,0.2,0,0.4,0.1,0.6
		c0.3,0.2,0.5,0.3,0.8,0.4c0.2,0.1,0.4,0.1,0.7,0.2c0,0.1,0,0.2-0.1,0.3l-1.1-0.1c-0.6-0.1-1-0.1-1.2-0.1l-1.8,0.1
		c-0.2,0-0.4,0-0.6,0.1h-0.2c0,0,0-0.1-0.1-0.1c0-0.1,0.1-0.2,0.2-0.2l1.1-0.3c0.2,0,0.3-0.1,0.5-0.2c0.1-0.2,0.2-0.5,0.2-0.7v-4.6
		c0-0.3,0-0.6-0.1-0.9c-0.1-0.1-0.2-0.2-0.3-0.3C175,71.3,174.7,71.2,174.3,71.1z M175.3,65.5c0-0.2,0.1-0.5,0.3-0.6
		c0.4-0.4,1-0.4,1.4,0c0.2,0.2,0.3,0.4,0.3,0.6c0,0.2-0.1,0.5-0.3,0.6c-0.2,0.2-0.4,0.3-0.7,0.3c-0.3,0-0.5-0.1-0.7-0.3
		C175.3,65.9,175.2,65.7,175.3,65.5L175.3,65.5z"/>
	<path class="st1" d="M187.6,76.9v0.7c-0.5,0.5-1,1-1.7,1.3c-0.6,0.3-1.3,0.4-2,0.4c-0.8,0-1.6-0.2-2.2-0.6
		c-0.7-0.4-1.2-1.1-1.5-1.8c-0.3-0.7-0.5-1.5-0.5-2.3c0-0.8,0.2-1.6,0.6-2.3c0.4-0.7,1-1.3,1.7-1.6c0.8-0.4,1.7-0.6,2.6-0.5
		c0.8-0.1,1.6,0.1,2.3,0.5c0.3,0.2,0.4,0.5,0.4,0.8c0,0.2-0.1,0.4-0.2,0.6c-0.2,0.2-0.4,0.2-0.6,0.2c-0.5-0.1-0.9-0.3-1.2-0.7
		c-0.2-0.2-0.5-0.4-0.7-0.6c-0.2-0.1-0.5-0.2-0.7-0.2c-0.6,0-1.2,0.3-1.6,0.8c-0.6,0.8-0.9,1.8-0.9,2.8c-0.1,1,0.3,2,0.9,2.8
		c0.5,0.6,1.3,1,2.1,1c0.5,0,1-0.1,1.5-0.3C186.6,77.6,187.1,77.3,187.6,76.9z"/>
	<path class="st1" d="M188.9,74.5c0-1.7,1-3.3,2.6-4.1c0.8-0.3,1.6-0.5,2.4-0.5c2.6,0,4.8,2.1,4.8,4.7c0,0,0,0,0,0c0,0,0,0.1,0,0.1
		c0,1.2-0.5,2.3-1.4,3.1c-1.7,1.5-4.2,1.8-6.2,0.7c-0.6-0.4-1.2-0.9-1.5-1.6C189.1,76.1,188.9,75.3,188.9,74.5z M193.8,78.7
		c0.6,0,1.1-0.2,1.6-0.4c0.6-0.3,1-0.8,1.2-1.4c0.3-0.7,0.5-1.5,0.5-2.3c0-0.7-0.1-1.4-0.4-2c-0.2-0.7-0.6-1.3-1.1-1.7
		c-0.5-0.4-1.1-0.6-1.7-0.6c-0.5,0-1,0.1-1.5,0.3c-0.6,0.3-1,0.7-1.3,1.3c-0.4,0.9-0.6,1.8-0.5,2.7c-0.1,1.1,0.2,2.1,0.9,3
		C192.1,78.4,192.9,78.7,193.8,78.7z"/>
	<path class="st1" d="M199.5,66.2c-1.2,0-2.1,1-2.1,2.1c0,1.2,1,2.1,2.1,2.1c1.2,0,2.1-1,2.1-2.1S200.6,66.2,199.5,66.2L199.5,66.2z
		 M199.5,70.1c-1,0-1.8-0.8-1.8-1.8s0.8-1.8,1.8-1.8c1,0,1.8,0.8,1.8,1.8c0,0,0,0,0,0l0,0C201.3,69.3,200.5,70.1,199.5,70.1
		C199.5,70.1,199.5,70.1,199.5,70.1L199.5,70.1L199.5,70.1z"/>
	<path class="st1" d="M198.6,69l-0.3-1.1h0c0,0.2,0,0.4,0,0.5V69H198v-1.4h0.4l0.3,1.1h0l0.4-1.1h0.4V69h-0.3v-0.7c0,0,0-0.1,0-0.1
		c0,0,0-0.2,0-0.3h0l-0.4,1.1H198.6z"/>
	<path class="st1" d="M200.1,68.5V69h-0.3v-1.4h0.4c0.2,0,0.3,0,0.4,0.1s0.1,0.2,0.1,0.3c0,0.1,0,0.2-0.1,0.2s-0.1,0.1-0.2,0.2
		c0.2,0.3,0.4,0.5,0.4,0.6h-0.3l-0.3-0.5H200.1z M200.1,68.2L200.1,68.2c0.2,0,0.3,0,0.3,0s0.1-0.1,0.1-0.2c0-0.1,0-0.1-0.1-0.1
		c0,0-0.1,0-0.2,0h-0.1V68.2z"/>
</g>
</svg>
