<?xml version="1.0" encoding="UTF-8"?>
<svg xmlns="http://www.w3.org/2000/svg" xmlns:xlink="http://www.w3.org/1999/xlink" width="75px" height="75px" viewBox="0 0 75 75" version="1.1">
<g id="surface1">
<path style=" stroke:none;fill-rule:nonzero;fill:rgb(0%,0%,0%);fill-opacity:1;" d="M 35.15625 70.3125 L 4.6875 70.3125 L 4.6875 4.6875 L 35.15625 4.6875 C 36.449219 4.6875 37.5 3.636719 37.5 2.34375 C 37.5 1.050781 36.449219 0 35.15625 0 L 2.34375 0 C 1.050781 0 0 1.050781 0 2.34375 L 0 72.65625 C 0 73.949219 1.050781 75 2.34375 75 L 35.15625 75 C 36.449219 75 37.5 73.949219 37.5 72.65625 C 37.5 71.363281 36.449219 70.3125 35.15625 70.3125 Z M 35.15625 70.3125 "/>
<path style=" stroke:none;fill-rule:nonzero;fill:rgb(0%,0%,0%);fill-opacity:1;" d="M 74.320312 35.863281 L 58.148438 19.460938 C 57.230469 18.535156 55.75 18.535156 54.835938 19.460938 C 53.917969 20.382812 53.917969 21.882812 54.835938 22.808594 L 67.023438 35.171875 L 18.757812 35.171875 C 17.464844 35.171875 16.414062 36.230469 16.414062 37.539062 C 16.414062 38.84375 17.464844 39.90625 18.757812 39.90625 L 67.023438 39.90625 L 54.835938 52.269531 C 53.917969 53.195312 53.917969 54.691406 54.835938 55.613281 C 55.75 56.539062 57.234375 56.539062 58.148438 55.613281 L 74.316406 39.210938 C 75.222656 38.300781 75.230469 36.773438 74.320312 35.863281 Z M 74.320312 35.863281 "/>
</g>
</svg>
